<svg class="condition condition-01d" width="514px" height="489px" viewBox="0 0 514 489" version="1.1" xmlns="http://www.w3.org/2000/svg" xmlns:xlink="http://www.w3.org/1999/xlink">
        <path d="M257,133 C195.25,133 145,183.25 145,245 C145,306.75 195.25,357 257,357 C318.75,357 369,306.75 369,245 C369,183.25 318.75,133 257,133 Z M257,325 C212.812,325 177,289.188 177,245 C177,200.812 212.812,165 257,165 C301.188,165 337,200.812 337,245 C337,289.188 301.188,325 257,325 Z M257,101 C265.833,101 273,93.833 273,85 L273,53 C273,44.167 265.833,37 257,37 C248.167,37 241,44.167 241,53 L241,85 C241,93.833 248.167,101 257,101 Z M257,389 C248.167,389 241,396.167 241,405 L241,437 C241,445.833 248.167,453 257,453 C265.833,453 273,445.833 273,437 L273,405 C273,396.167 265.833,389 257,389 Z M381.438,143.167 L404.063,120.542 C410.313,114.292 410.313,104.167 404.063,97.917 C397.813,91.667 387.688,91.667 381.438,97.917 L358.813,120.542 C352.563,126.792 352.563,136.917 358.813,143.167 C365.062,149.417 375.188,149.417 381.438,143.167 Z M132.562,346.834 L109.937,369.459 C103.687,375.708 103.687,385.833 109.937,392.083 C116.187,398.333 126.312,398.333 132.562,392.083 L155.187,369.459 C161.437,363.188 161.437,353.083 155.187,346.834 C148.938,340.583 138.812,340.562 132.562,346.834 Z M113,245 C113,236.167 105.833,229 97,229 L65,229 C56.167,229 49,236.167 49,245 C49,253.833 56.167,261 65,261 L97,261 C105.833,261 113,253.833 113,245 Z M449,229 L417,229 C408.167,229 401,236.167 401,245 C401,253.833 408.167,261 417,261 L449,261 C457.833,261 465,253.833 465,245 C465,236.167 457.833,229 449,229 Z M132.541,143.167 C138.792,149.417 148.917,149.417 155.166,143.167 C161.417,136.917 161.417,126.792 155.166,120.542 L132.541,97.917 C126.291,91.667 116.167,91.667 109.916,97.917 C103.666,104.167 103.666,114.292 109.916,120.542 L132.541,143.167 Z M381.459,346.812 C375.188,340.562 365.083,340.562 358.834,346.812 C352.583,353.062 352.563,363.187 358.834,369.437 L381.459,392.062 C387.708,398.312 397.833,398.312 404.083,392.062 C410.333,385.812 410.333,375.688 404.083,369.437 L381.459,346.812 Z" class="sun" stroke="none" fill="#1D1D1B" fill-rule="evenodd"></path>
    </svg>