<svg class="condition condition-01n" width="514px" height="489px" viewBox="0 0 514 489" version="1.1" xmlns="http://www.w3.org/2000/svg" xmlns:xlink="http://www.w3.org/1999/xlink">
    <path d="M350.437,331.737393 C300.561,381.653393 219.354,381.653393 169.437,331.737393 C119.521,281.820393 119.521,200.612393 169.437,150.716393 C182.646,137.529393 198.749,127.466393 217.269,120.904393 C223.103,118.862393 229.562,120.342393 233.894,124.696393 C238.27,129.071393 239.749,135.529393 237.687,141.321393 C225.145,176.696393 233.687,214.987393 259.936,241.238393 C286.145,267.466393 324.437,275.988393 359.853,263.488393 C365.645,261.426393 372.124,262.905393 376.478,267.280393 C380.854,271.613393 382.312,278.092393 380.249,283.905393 C373.728,302.425393 363.645,318.528393 350.437,331.737393 Z M192.062,173.341393 C154.624,210.779393 154.624,271.695393 192.062,309.112393 C232.062,349.133393 300.187,345.529393 335.062,300.945393 C299.103,303.195393 263.687,290.216393 237.312,263.861393 C210.937,237.507393 197.979,202.090393 200.228,166.132393 C197.354,168.383393 194.624,170.779393 192.062,173.341393 Z" class="moon" stroke="none" fill="#1D1D1B" fill-rule="nonzero"></path>
</svg>