<svg class="condition condition-11d" width="514px" height="489px" viewBox="0 0 514 489" version="1.1" xmlns="http://www.w3.org/2000/svg" xmlns:xlink="http://www.w3.org/1999/xlink">
    <polygon class="thunder" stroke="none" fill="#1D1D1B" fill-rule="evenodd" points="209 229 241 261 209 357 305 261 273 229 305 133"></polygon>
    <g class="cloud cloud-top">
        <path d="M401,149 C395.688,149 390.438,149.375 385.208,150.125 C355.334,109.417 308.188,85 257,85 C205.812,85 158.688,109.417 128.792,150.125 C123.562,149.375 118.312,149 113,149 C51.25,149 1,199.25 1,261 C1,322.75 51.25,373 113,373 C126.688,373 140.084,370.5 152.709,365.667 C181.666,390.917 218.5,405 257,405 C295.542,405 332.333,390.917 361.291,365.667 C373.916,370.5 387.312,373 401,373 C462.75,373 513,322.75 513,261 C513,199.25 462.75,149 401,149 Z" stroke="none" fill="#1D1D1B" fill-rule="evenodd"></path>
        <path d="M401,341 C383.875,341 368.084,335.5 355.062,326.333 C331.584,354.624 296.624,373 257,373 C217.375,373 182.416,354.624 158.938,326.333 C145.938,335.5 130.125,341 113,341 C68.812,341 33,305.188 33,261 C33,216.812 68.812,181 113,181 C123.812,181 134.062,183.208 143.438,187.083 C164.667,145.667 207.291,117 257,117 C306.709,117 349.334,145.667 370.541,187.083 C379.938,183.208 390.209,181 401,181 C445.188,181 481,216.812 481,261 C481,305.188 445.188,341 401,341 Z" stroke="none" fill="#FFFFFF" fill-rule="evenodd"></path>
    </g>
</svg>