<svg class="condition condition-13d" width="514px" height="489px" viewBox="0 0 514 489" version="1.1" xmlns="http://www.w3.org/2000/svg" xmlns:xlink="http://www.w3.org/1999/xlink">
<path d="M119.880633,175.0264 C125.526633,173.5684 131.276633,176.9024 132.777633,182.4624 C134.277633,188.0874 130.943633,193.8164 125.381633,195.3374 L113.319633,198.5254 C113.069633,202.3384 112.069633,206.0664 110.381633,209.5264 L119.193633,218.3384 C123.318633,222.4424 123.255633,229.0884 119.193633,233.1504 C115.068633,237.2334 108.443633,237.3164 104.359633,233.1924 L95.5686329,224.4004 C92.0686329,226.0674 88.3806329,227.0264 84.5686329,227.3384 L81.3186329,239.3384 C79.8186329,244.9434 74.1106329,248.2764 68.4846329,246.7764 C62.9026329,245.2764 59.5686329,239.4844 61.0686329,233.8594 L64.2566329,221.9634 C62.6936329,220.9424 61.1936329,219.7134 59.8186329,218.3384 C58.3806329,216.9424 57.1926329,215.4414 56.1306329,213.8374 L44.2556329,217.0674 C38.6306329,218.5254 32.8806329,215.2334 31.3596329,209.6504 C29.8586329,204.0254 33.1926329,198.3174 38.8176329,196.7754 L50.8596329,193.5674 C51.1516329,189.7764 52.1096329,186.0884 53.7556329,182.5884 L44.9846329,173.8174 C40.8806329,169.7134 40.8806329,163.0674 44.9846329,158.9634 C49.0686329,154.8594 55.6936329,154.8384 59.8186329,158.9634 L68.6306329,167.7344 C72.1106329,166.0884 75.7566329,165.1504 79.5686329,164.8384 L82.8186329,152.7764 C84.3186329,147.1934 90.0686329,143.8594 95.6936329,145.3594 C101.234633,146.8384 104.568633,152.6094 103.068633,158.2134 L99.8806329,170.1514 C101.443633,171.2144 102.943633,172.4014 104.359633,173.7764 C105.755633,175.1934 106.901633,176.7144 108.005633,178.2144 L119.880633,175.0264 Z M89.5046329,203.4844 C93.5676329,199.4014 93.6086329,192.7344 89.5046329,188.6514 C85.4006329,184.5684 78.7546329,184.5684 74.6296329,188.6514 C70.5676329,192.7134 70.5676329,199.4014 74.6296329,203.4844 C78.7546329,207.5884 85.4006329,207.5884 89.5046329,203.4844 Z" class="snowflake-01" stroke="none" fill="#1D1D1B" fill-rule="evenodd"></path>
    <path d="M323.628042,220.251226 C333.641111,217.665492 343.838622,223.578275 346.500616,233.438825 C349.160836,243.414651 343.248053,253.574919 333.383956,256.272382 L311.992238,261.926237 C311.548868,268.688517 309.775388,275.300051 306.781753,281.436292 L322.409661,297.0642 C329.725267,304.342562 329.613537,316.129112 322.409661,323.332988 C315.094055,330.574108 303.344749,330.721307 296.101856,323.407475 L280.511191,307.815037 C274.304011,310.771428 267.763416,312.472196 261.002909,313.025521 L255.239099,334.307284 C252.578878,344.24764 242.455853,350.15865 232.478254,347.498429 C222.578687,344.838209 216.665905,334.566212 219.326125,324.590386 L224.97998,303.493065 C222.20803,301.682342 219.54781,299.502735 217.109275,297.0642 C214.55901,294.588421 212.452116,291.926428 210.56868,289.081765 L189.508602,294.810106 C179.532776,297.395841 169.335265,291.557544 166.637802,281.656204 C163.975808,271.680378 169.888591,261.557353 179.864417,258.822646 L201.220666,253.133322 C201.738522,246.410059 203.437516,239.869464 206.356664,233.662283 L190.801469,218.107088 C183.523107,210.828726 183.523107,199.042176 190.801469,191.763814 C198.044363,184.485451 209.793669,184.448208 217.109275,191.763814 L232.737182,207.319008 C238.908893,204.39986 245.375002,202.736335 252.135508,202.18301 L257.899319,180.791292 C260.559539,170.889952 270.75705,164.977169 280.732876,167.637389 C290.55973,170.260366 296.472513,180.49512 293.812293,190.433703 L288.158438,211.60551 C290.930387,213.490719 293.590608,215.59584 296.101856,218.034376 C298.577634,220.547397 300.610042,223.24486 302.567964,225.905081 L323.628042,220.251226 Z M269.756807,270.720925 C276.962457,263.479805 277.03517,251.656013 269.756807,244.414893 C262.478445,237.173774 250.691895,237.173774 243.37629,244.414893 C236.172413,251.61877 236.172413,263.479805 243.37629,270.720925 C250.691895,277.999288 262.478445,277.999288 269.756807,270.720925 Z" class="snowflake-02" stroke="none" fill="#1D1D1B" fill-rule="evenodd"></path>
    <path d="M469.880633,210.0264 C475.526633,208.5684 481.276633,211.9024 482.777633,217.4624 C484.277633,223.0874 480.943633,228.8164 475.381633,230.3374 L463.319633,233.5254 C463.069633,237.3384 462.069633,241.0664 460.381633,244.5264 L469.193633,253.3384 C473.318633,257.4424 473.255633,264.0884 469.193633,268.1504 C465.068633,272.2334 458.443633,272.3164 454.359633,268.1924 L445.568633,259.4004 C442.068633,261.0674 438.380633,262.0264 434.568633,262.3384 L431.318633,274.3384 C429.818633,279.9434 424.110633,283.2764 418.484633,281.7764 C412.902633,280.2764 409.568633,274.4844 411.068633,268.8594 L414.256633,256.9634 C412.693633,255.9424 411.193633,254.7134 409.818633,253.3384 C408.380633,251.9424 407.192633,250.4414 406.130633,248.8374 L394.255633,252.0674 C388.630633,253.5254 382.880633,250.2334 381.359633,244.6504 C379.858633,239.0254 383.192633,233.3174 388.817633,231.7754 L400.859633,228.5674 C401.151633,224.7764 402.109633,221.0884 403.755633,217.5884 L394.984633,208.8174 C390.880633,204.7134 390.880633,198.0674 394.984633,193.9634 C399.068633,189.8594 405.693633,189.8384 409.818633,193.9634 L418.630633,202.7344 C422.110633,201.0884 425.756633,200.1504 429.568633,199.8384 L432.818633,187.7764 C434.318633,182.1934 440.068633,178.8594 445.693633,180.3594 C451.234633,181.8384 454.568633,187.6094 453.068633,193.2134 L449.880633,205.1514 C451.443633,206.2144 452.943633,207.4014 454.359633,208.7764 C455.755633,210.1934 456.901633,211.7144 458.005633,213.2144 L469.880633,210.0264 Z M439.504633,238.4844 C443.567633,234.4014 443.608633,227.7344 439.504633,223.6514 C435.400633,219.5684 428.754633,219.5684 424.629633,223.6514 C420.567633,227.7134 420.567633,234.4014 424.629633,238.4844 C428.754633,242.5884 435.400633,242.5884 439.504633,238.4844 Z" class="snowflake-03" stroke="none" fill="#1D1D1B" fill-rule="evenodd"></path>
<g class="cloud cloud-top">
        <path d="M401,149 C395.688,149 390.438,149.375 385.208,150.125 C355.334,109.417 308.188,85 257,85 C205.812,85 158.688,109.417 128.792,150.125 C123.562,149.375 118.312,149 113,149 C51.25,149 1,199.25 1,261 C1,322.75 51.25,373 113,373 C126.688,373 140.084,370.5 152.709,365.667 C181.666,390.917 218.5,405 257,405 C295.542,405 332.333,390.917 361.291,365.667 C373.916,370.5 387.312,373 401,373 C462.75,373 513,322.75 513,261 C513,199.25 462.75,149 401,149 Z" stroke="none" fill="#1D1D1B" fill-rule="evenodd"></path>
        <path d="M401,341 C383.875,341 368.084,335.5 355.062,326.333 C331.584,354.624 296.624,373 257,373 C217.375,373 182.416,354.624 158.938,326.333 C145.938,335.5 130.125,341 113,341 C68.812,341 33,305.188 33,261 C33,216.812 68.812,181 113,181 C123.812,181 134.062,183.208 143.438,187.083 C164.667,145.667 207.291,117 257,117 C306.709,117 349.334,145.667 370.541,187.083 C379.938,183.208 390.209,181 401,181 C445.188,181 481,216.812 481,261 C481,305.188 445.188,341 401,341 Z" stroke="none" fill="#FFFFFF" fill-rule="evenodd"></path>
    </g>
</svg>