<svg width="78px" height="89px" viewBox="11 5 78 89" version="1.1" xmlns="http://www.w3.org/2000/svg" xmlns:xlink="http://www.w3.org/1999/xlink">
    <path d="M51.8571429,13.5139516 L51.8571429,6 L48.1428571,6 L48.1428571,13.5139516 C27.5025714,14.4914516 11,31.518871 11,52.3709677 L11,56.0806452 L14.7142857,56.0806452 C14.7142857,51.988871 18.046,48.6612903 22.1428571,48.6612903 C26.2397143,48.6612903 29.5714286,51.988871 29.5714286,56.0806452 L33.2857143,56.0806452 C33.2857143,51.988871 36.6174286,48.6612903 40.7142857,48.6612903 C44.8111429,48.6612903 48.1428571,51.988871 48.1428571,56.0806452 L48.1428571,85.7580645 C48.1428571,89.8498387 51.4745714,93.1774194 55.5714286,93.1774194 C59.6682857,93.1774194 63,89.8498387 63,85.7580645 L63,82.0483871 L59.2857143,82.0483871 L59.2857143,85.7580645 C59.2857143,87.8039516 57.6198571,89.4677419 55.5714286,89.4677419 C53.523,89.4677419 51.8571429,87.8039516 51.8571429,85.7580645 L51.8571429,56.0806452 C51.8571429,51.988871 55.1888571,48.6612903 59.2857143,48.6612903 C63.3825714,48.6612903 66.7142857,51.988871 66.7142857,56.0806452 L70.4285714,56.0806452 C70.4285714,51.988871 73.7602857,48.6612903 77.8571429,48.6612903 C81.954,48.6612903 85.2857143,51.988871 85.2857143,56.0806452 L89,56.0806452 L89,52.3709677 C89,31.518871 72.4974286,14.4914516 51.8571429,13.5139516 Z M29.6791429,47.8878226 C27.6938571,46.066371 25.0455714,44.9516129 22.1428571,44.9516129 C19.45,44.9516129 16.9781429,45.9105645 15.0504286,47.503871 C17.1638571,32.2904839 29.044,20.1746774 44.1388571,17.6391129 C35.6647143,25.4795161 30.4517143,36.3025 29.6791429,47.8878226 Z M59.2857143,44.9516129 C55.4154286,44.9516129 51.9982857,46.9325806 50,49.9355645 C48.0017143,46.9325806 44.5845714,44.9516129 40.7142857,44.9516129 C37.9248571,44.9516129 35.3824286,45.9903226 33.425,47.6893548 C34.3498571,35.7775806 40.3781429,24.7839516 50,17.5890323 C59.6218571,24.7839516 65.6501429,35.7775806 66.575,47.6893548 C64.6175714,45.9921774 62.0751429,44.9516129 59.2857143,44.9516129 Z M77.8571429,44.9516129 C74.9544286,44.9516129 72.3061429,46.066371 70.3208571,47.8896774 C69.5482857,36.3043548 64.3352857,25.481371 55.8611429,17.6409677 C70.956,20.1746774 82.8361429,32.2923387 84.9495714,47.5057258 C83.0218571,45.9105645 80.55,44.9516129 77.8571429,44.9516129 Z" id="Shape" stroke="none" fill="#000000" fill-rule="evenodd"></path>
</svg>